<?xml version="1.0" encoding="utf-8"?>
<!-- Generator: Adobe Illustrator 20.0.0, SVG Export Plug-In . SVG Version: 6.00 Build 0)  -->
<svg version="1.1" id="Слой_1" xmlns="http://www.w3.org/2000/svg" xmlns:xlink="http://www.w3.org/1999/xlink" x="0px" y="0px"
	 width="120px" height="46.4px" viewBox="0 0 120 46.4" style="enable-background:new 0 0 120 46.4;" xml:space="preserve">
<style type="text/css">
	.st0{opacity:0.6;enable-background:new    ;}
	.st1{fill:#E2E2E2;}
	.st2{fill:#333333;}
	.st3{fill:#FFFFFF;}
</style>
<g>
	<path class="st0" d="M96.8,46.4H23.2C10.4,46.4,0,36,0,23.2l0,0C0,10.4,10.4,0,23.2,0h73.6C109.6,0,120,10.4,120,23.2l0,0
		C120,36,109.6,46.4,96.8,46.4z"/>
	<g>
		<g>
			<path class="st1" d="M38.1,11.2c-0.3,0.2-0.4,0.4-0.5,0.7c-0.1,0-0.1,0-0.2-0.1c-1.6-0.8-3.1-1.6-4.7-2.3C32.4,9.4,32,9.2,31.6,9
				c0.3-0.2,0.4-0.4,0.5-0.7c0.1,0,0.1,0,0.2,0.1c1.1,0.5,2.1,1.1,3.2,1.6c0.8,0.4,1.6,0.8,2.5,1.3C38,11.2,38.1,11.2,38.1,11.2z"/>
			<path class="st1" d="M13.8,35.8c0.3-0.2,0.4-0.4,0.5-0.7c0.1,0,0.1,0,0.2,0.1c1.9,0.9,3.8,1.9,5.6,2.8c0.1,0,0.1,0,0.2,0.1
				c-0.2,0.2-0.4,0.4-0.5,0.7c-0.1,0-0.1,0-0.2-0.1c-1.1-0.5-2.1-1.1-3.2-1.6C15.6,36.7,14.8,36.3,13.8,35.8
				C13.9,35.9,13.9,35.9,13.8,35.8z"/>
			<path class="st1" d="M14.3,12c-0.1-0.3-0.2-0.5-0.5-0.7c0.1-0.1,0.3-0.2,0.4-0.2c1.8-0.9,3.6-1.8,5.3-2.7c0.1,0,0.1-0.1,0.2-0.1
				c0.1,0.3,0.2,0.6,0.5,0.7c-0.1,0-0.1,0.1-0.2,0.1c-0.8,0.4-1.7,0.9-2.5,1.3C16.5,10.9,15.4,11.4,14.3,12
				C14.4,11.9,14.4,12,14.3,12z"/>
			<path class="st1" d="M37.6,35.1c0.1,0.3,0.2,0.5,0.5,0.7c-0.3,0.2-0.7,0.4-1,0.5c-1.6,0.8-3.2,1.6-4.7,2.4
				c-0.1,0-0.1,0.1-0.2,0.1c-0.1-0.3-0.2-0.6-0.5-0.7c0.5-0.3,1.1-0.6,1.6-0.9c1.4-0.7,2.8-1.4,4.2-2.1
				C37.5,35.1,37.5,35.1,37.6,35.1z"/>
			<path class="st1" d="M25.4,22.2c0-2.6,0-5.3,0-7.9c0-0.8,0-1.6,0-2.3c0.3,0.1,0.7,0.1,1,0c0.1,0.1,0,0.2,0,0.3c0,3.2,0,6.3,0,9.5
				c0,0.2,0,0.3,0,0.5C26.2,22.5,25.9,22.6,25.4,22.2C25.5,22.3,25.5,22.3,25.4,22.2z"/>
			<path class="st1" d="M25.4,35.1c0-2,0-4,0-6.1c0.3,0.1,0.7,0.1,1,0c0,1.6,0,3.3,0,4.9c0,0.4,0,0.7,0,1.1v0.1
				C26.1,34.9,25.8,35,25.4,35.1z"/>
			<path class="st1" d="M14.3,28.9c0-0.1,0.1-0.1,0.2-0.1c1-0.5,1.9-1,2.9-1.4c1.3-0.7,2.6-1.3,3.9-2C22.1,25,23,24.5,24,24
				c0.1-0.1,0.3-0.1,0.4-0.3c0.1,0.1,0.2,0,0.2-0.1c0.1-0.3,0.3-0.4,0.6-0.5c0.3,0,0.5,0.2,0.6,0.4c0.1,0.3,0.1,0.6,0,0.9
				s-0.4,0.4-0.8,0.4h-0.1c0-0.1,0-0.1,0-0.2c0.4,0.2,0.8-0.1,0.8-0.4c0-0.2,0-0.4-0.1-0.6s-0.3-0.4-0.6-0.4c-0.2,0-0.4,0.2-0.5,0.5
				c0,0.1,0,0.1,0.1,0.1c0.2,0.1,0.2,0.2,0.2,0.3c0,0.1,0,0.2,0,0.3c-0.2,0-0.4,0.2-0.6,0.3c-1.7,0.8-3.4,1.7-5,2.5
				c-1.5,0.7-2.9,1.5-4.4,2.2c-0.1,0-0.1,0.1-0.2,0.1C14.7,29.3,14.5,29.1,14.3,28.9z"/>
			<path class="st1" d="M8.7,20.5c0,0.1,0,0.1,0,0.2c0,1.9,0,3.8,0,5.6c0,0.1,0,0.1,0,0.2c-0.3-0.1-0.7-0.1-1,0c0-2,0-4.1,0-6.1
				C8,20.6,8.3,20.6,8.7,20.5z"/>
			<path class="st1" d="M20.3,21.2c-0.6-0.3-1.2-0.6-1.8-0.9c-1.4-0.7-2.7-1.4-4.1-2c-0.1,0-0.1,0-0.2-0.1c0.2-0.2,0.4-0.4,0.5-0.7
				c0.4,0.1,0.7,0.3,1,0.5c1.2,0.6,2.4,1.2,3.6,1.8c0.4,0.2,0.8,0.4,1.2,0.6c0,0,0.1,0,0.1,0.1C20.5,20.6,20.3,20.8,20.3,21.2z"/>
			<path class="st1" d="M37.6,18.1c0,0.1-0.1,0.1-0.1,0.1c-1.2,0.6-2.3,1.2-3.5,1.7c-0.7,0.4-1.5,0.7-2.2,1.1
				c-0.1,0-0.1,0.1-0.2,0.1c0-0.3-0.2-0.6-0.5-0.7c0-0.1,0.1-0.1,0.2-0.1c1.8-0.9,3.6-1.8,5.4-2.7c0.1-0.1,0.3-0.2,0.4-0.2
				C37.2,17.7,37.4,17.9,37.6,18.1z"/>
			<path class="st1" d="M43.3,26.5c-0.1,0,0-0.1,0-0.2c0-1.9,0-3.8,0-5.6c0-0.1,0-0.1,0-0.2c0.3,0.1,0.6,0.1,0.9,0
				c0,0.1,0,0.1,0,0.2c0,1.9,0,3.8,0,5.7c0,0.1,0,0.1,0,0.2C43.9,26.4,43.6,26.5,43.3,26.5z"/>
			<path class="st1" d="M27.6,23.8c1.1,0.6,2.2,1.1,3.3,1.7c0.9,0.5,1.9,0.9,2.8,1.4c1.2,0.6,2.5,1.3,3.7,1.9c0,0,0.1,0,0.1,0.1
				c-0.3,0.2-0.4,0.4-0.5,0.7c-0.3-0.1-0.7-0.3-1-0.5c-1.2-0.6-2.4-1.2-3.7-1.8c-1.6-0.8-3.2-1.6-4.9-2.5c-0.2-0.1-0.4-0.2-0.6-0.3
				c0,0,0,0,0-0.1c0-0.3,0-0.6,0.3-0.7C27.4,23.8,27.4,23.7,27.6,23.8z"/>
		</g>
		<g>
			<path class="st2" d="M19.8,8.2c0-0.4,0.2-0.7,0.6-0.8c1.7-0.9,3.4-1.7,5.1-2.5c0.1,0,0.2-0.1,0.3-0.1c0.2,0,0.3,0,0.5,0
				c1.4,0.7,2.8,1.4,4.2,2.1c0.4,0.2,0.7,0.4,1.1,0.6c0.3,0.2,0.6,0.4,0.6,0.8c0,0,0,0,0,0.1C32,8.5,31.9,8.8,31.6,9
				c-0.5,0.2-0.9,0.1-1.3-0.1c-1-0.5-2.1-1.1-3.1-1.6C27,7.2,27,7.2,27,7.4c0,1.2,0,2.4,0,3.6c0,0.5-0.1,0.8-0.5,1
				c-0.3,0.1-0.7,0.1-1,0c0,0,0,0,0-0.1c-0.3-0.2-0.5-0.5-0.4-0.9c0-1.2,0-2.5,0-3.7c0-0.2,0-0.2-0.2-0.1c-1.1,0.6-2.2,1.1-3.3,1.7
				c-0.4,0.2-0.8,0.2-1.2,0.1C20.1,8.8,19.9,8.5,19.8,8.2z"/>
			<path class="st2" d="M32.1,38.8c-0.1,0.1,0,0.2-0.1,0.3c-0.1,0.2-0.2,0.4-0.5,0.5c-1.7,0.9-3.4,1.7-5.1,2.6
				c-0.1,0-0.2,0.1-0.3,0.1c-0.2,0-0.3,0-0.5,0c-1.5-0.7-2.9-1.5-4.4-2.2c-0.3-0.1-0.6-0.3-0.9-0.4c-0.4-0.2-0.6-0.4-0.6-0.9
				c0.1-0.3,0.2-0.5,0.5-0.7c0.5-0.2,0.9-0.1,1.4,0.1c1,0.5,2.1,1,3.1,1.6c0.2,0.1,0.2,0.1,0.2-0.1c0-1.3,0-2.5,0-3.8
				c0-0.3,0.1-0.6,0.4-0.8c0,0,0.1,0,0.1-0.1c0.3-0.1,0.7-0.1,1,0c0.4,0.2,0.5,0.6,0.5,1.1c0,1.2,0,2.4,0,3.6c0,0.2,0,0.2,0.2,0.1
				c1.1-0.5,2.1-1.1,3.2-1.6c0.4-0.2,0.8-0.3,1.3-0.1C31.9,38.3,32,38.5,32.1,38.8z"/>
			<path class="st2" d="M13.8,35.8c-0.4,0.2-0.8,0.1-1.3-0.1c-1.6-0.8-3.1-1.6-4.7-2.4c-0.3-0.2-0.6-0.3-0.7-0.7c0-1.8,0-3.7,0-5.5
				c0.1-0.3,0.2-0.5,0.5-0.6c0.3-0.2,0.7-0.1,1,0c0.4,0.2,0.6,0.6,0.5,1.1c0,1,0,2.1,0,3.1c0,0.1,0,0.1,0,0.2c0.1,0,0.1-0.1,0.2-0.1
				c1.2-0.6,2.4-1.2,3.6-1.8c0.4-0.2,0.9-0.3,1.3-0.1c0.2,0.2,0.4,0.4,0.5,0.7c0,0.4-0.3,0.7-0.6,0.9c-1.2,0.6-2.4,1.2-3.5,1.8
				c-0.1,0.1-0.2,0.1-0.4,0.2c0.1,0,0.1,0.1,0.2,0.1c1.1,0.6,2.2,1.1,3.3,1.7c0.2,0.1,0.4,0.3,0.5,0.6c0,0.1,0,0.2,0.1,0.3
				C14.2,35.4,14.1,35.7,13.8,35.8z"/>
			<path class="st2" d="M7.2,14.4c0.1-0.3,0.4-0.5,0.7-0.7c1.6-0.8,3.1-1.6,4.7-2.4c0.4-0.2,0.8-0.3,1.3-0.1
				c0.3,0.2,0.4,0.4,0.5,0.7c0,0,0,0,0,0.1c0,0.4-0.2,0.6-0.6,0.8c-0.3,0.1-0.6,0.3-0.8,0.4c-0.9,0.4-1.8,0.9-2.7,1.3
				c0.1,0,0.1,0.1,0.2,0.1c1.2,0.6,2.5,1.2,3.7,1.9c0.4,0.2,0.6,0.4,0.6,0.9c0,0.3-0.2,0.5-0.5,0.7c-0.5,0.2-0.9,0.1-1.3-0.1
				c-1.1-0.6-2.2-1.1-3.2-1.6c-0.2-0.1-0.3-0.2-0.5-0.2c0,0.1,0,0.2,0,0.2c0,1.1,0,2.2,0,3.3c0,0.3-0.1,0.5-0.3,0.7
				c-0.1,0.1-0.1,0.1-0.2,0.2c-0.3,0.1-0.7,0.1-1,0c-0.2-0.1-0.4-0.3-0.5-0.6C7.2,18.1,7.2,16.2,7.2,14.4z"/>
			<path class="st2" d="M38.1,11.2c0.4-0.2,0.8-0.1,1.2,0.1c1.6,0.8,3.1,1.6,4.7,2.4c0.3,0.2,0.6,0.4,0.7,0.7c0,1.8,0,3.6,0,5.4
				c-0.1,0.3-0.3,0.5-0.5,0.6c-0.3,0.1-0.6,0.1-0.9,0c0,0,0,0-0.1-0.1c-0.4-0.2-0.5-0.5-0.5-0.9c0-1.1,0-2.1,0-3.2
				c0-0.1,0-0.1,0-0.2c-0.1,0-0.1,0-0.2,0.1c-1.2,0.6-2.4,1.2-3.6,1.8c-0.4,0.2-0.8,0.3-1.3,0.1c-0.3-0.2-0.4-0.4-0.5-0.7
				c0-0.4,0.3-0.7,0.7-0.9c1.1-0.5,2.1-1.1,3.1-1.6c0.2-0.1,0.5-0.2,0.7-0.4c-0.4-0.2-0.8-0.4-1.2-0.6c-0.8-0.4-1.6-0.8-2.4-1.2
				c-0.3-0.2-0.5-0.4-0.6-0.8C37.7,11.7,37.8,11.4,38.1,11.2z"/>
			<path class="st2" d="M44.7,32.6c-0.1,0.3-0.3,0.5-0.7,0.7c-1.6,0.8-3.2,1.6-4.8,2.4c-0.4,0.2-0.8,0.3-1.2,0.1
				c-0.3-0.2-0.4-0.4-0.5-0.7c0-0.1,0-0.2,0-0.3c0.1-0.4,0.4-0.5,0.7-0.7c1.1-0.6,2.2-1.1,3.3-1.7c0-0.1-0.1-0.1-0.1-0.1
				c-1.2-0.6-2.5-1.3-3.7-1.9c-0.4-0.2-0.6-0.4-0.7-0.9c0-0.3,0.2-0.6,0.5-0.7c0.5-0.2,0.9-0.1,1.3,0.1c1,0.5,1.9,1,2.9,1.5
				c0.3,0.1,0.6,0.3,0.9,0.4c0-0.1,0-0.2,0-0.2c0-1.1,0-2.2,0-3.3c0-0.3,0.1-0.6,0.4-0.8l0.1-0.1c0.3-0.1,0.6-0.1,1,0
				c0.3,0.1,0.4,0.4,0.5,0.6C44.7,29,44.7,30.8,44.7,32.6z"/>
			<path class="st2" d="M27.6,23.7C27.1,24,27,24.6,27,25c0,1,0,2,0,3c0,0.5-0.1,0.8-0.5,1c-0.3,0.1-0.7,0.1-1,0l-0.1-0.1
				c-0.2-0.2-0.4-0.4-0.4-0.7c0-1.1,0-2.2,0-3.3c0-0.4,0-0.9-0.6-1.2c-0.1-0.1-0.2-0.1-0.3-0.2c-0.2-0.1-0.5-0.2-0.6-0.3
				c-0.7-0.3-1.3-0.7-2-1c-0.2-0.1-0.4-0.2-0.6-0.3c-0.3-0.2-0.5-0.4-0.6-0.8c0-0.3,0.2-0.6,0.5-0.7c0.5-0.2,0.9-0.1,1.3,0.1
				c1.1,0.6,2.3,1.1,3.4,1.7c0,0,0.7,0.2,1,0c0.4-0.2,0.8-0.4,1.2-0.6c0.8-0.4,1.5-0.7,2.3-1.1c0.4-0.2,0.8-0.3,1.3-0.1
				c0.3,0.2,0.4,0.4,0.5,0.7c0,0.4-0.2,0.6-0.5,0.8c-0.8,0.4-1.7,0.8-2.5,1.3C28.2,23.4,27.9,23.6,27.6,23.7z"/>
		</g>
	</g>
	<g>
		<path class="st3" d="M50.3,16.2v-5h4.2v5h-1v-4.1h-2.2v4.1H50.3z"/>
		<path class="st3" d="M55.3,13.7c0-0.7,0.2-1.3,0.8-1.9S57.3,11,58,11s1.4,0.2,1.9,0.8c0.5,0.5,0.8,1.1,0.8,1.9
			c0,0.7-0.3,1.3-0.8,1.9c-0.5,0.5-1.2,0.8-1.9,0.8s-1.4-0.2-1.9-0.8S55.3,14.4,55.3,13.7z M59.6,13.7c0-0.5-0.2-0.9-0.5-1.2
			S58.4,12,57.9,12s-0.9,0.2-1.2,0.5s-0.5,0.7-0.5,1.2s0.2,0.9,0.5,1.2s0.7,0.5,1.2,0.5s0.8-0.2,1.2-0.5
			C59.5,14.6,59.6,14.2,59.6,13.7z"/>
		<path class="st3" d="M61.3,13.7c0-0.7,0.3-1.3,0.8-1.9c0.5-0.5,1.2-0.8,1.9-0.8c0.5,0,0.9,0.1,1.3,0.3s0.7,0.5,0.9,0.9l-0.8,0.5
			c-0.4-0.6-0.8-0.8-1.4-0.8c-0.5,0-0.9,0.2-1.2,0.5s-0.5,0.7-0.5,1.2s0.2,0.9,0.5,1.2s0.7,0.5,1.2,0.5c0.6,0,1.1-0.3,1.4-0.8
			l0.8,0.5c-0.2,0.4-0.5,0.7-0.9,0.9s-0.8,0.3-1.3,0.3c-0.7,0-1.4-0.2-1.9-0.8C61.5,15.1,61.3,14.4,61.3,13.7z"/>
		<path class="st3" d="M71.6,11.1H72v5.1h-1v-2.7l-1.3,1.6h-0.3l-1.3-1.6v2.7h-1v-5.1h0.3l2.1,2.7L71.6,11.1z"/>
		<path class="st3" d="M72.9,13.7c0-0.7,0.2-1.3,0.8-1.9s1.2-0.8,1.9-0.8c0.7,0,1.4,0.2,1.9,0.8c0.5,0.5,0.8,1.1,0.8,1.9
			c0,0.7-0.3,1.3-0.8,1.9c-0.5,0.5-1.2,0.8-1.9,0.8c-0.7,0-1.4-0.2-1.9-0.8S72.8,14.4,72.9,13.7z M77.1,13.7c0-0.5-0.2-0.9-0.5-1.2
			S75.9,12,75.4,12s-0.9,0.2-1.2,0.5c-0.3,0.3-0.5,0.7-0.5,1.2s0.2,0.9,0.5,1.2s0.7,0.5,1.2,0.5s0.8-0.2,1.2-0.5
			C77,14.6,77.1,14.2,77.1,13.7z"/>
		<path class="st3" d="M80.1,16.2v-4.1h-1.6v-0.9h4.3v0.9h-1.6v4.1H80.1z"/>
		<path class="st3" d="M83.4,16.2v-5h1.9c0.5,0,1,0.2,1.3,0.5s0.5,0.7,0.5,1.2s-0.2,0.9-0.5,1.2s-0.8,0.5-1.3,0.5h-0.9v1.8h-1V16.2z
			 M84.5,13.6h0.9c0.2,0,0.4-0.1,0.6-0.2s0.2-0.3,0.2-0.5s-0.1-0.4-0.2-0.5s-0.3-0.2-0.6-0.2h-0.9V13.6z"/>
		<path class="st3" d="M88,16.2v-5h3.4v0.9H89v1h1.7V14H89v1.3h2.4v0.9H88z"/>
		<path class="st3" d="M93.5,16.2v-4.1h-1.6v-0.9h4.3v0.9h-1.6v4.1H93.5z"/>
		<path class="st3" d="M96.8,16.2v-5h1v1.7h0.9c0.5,0,1,0.2,1.3,0.5s0.5,0.7,0.5,1.2s-0.2,0.9-0.5,1.2s-0.8,0.5-1.3,0.5L96.8,16.2
			L96.8,16.2z M97.8,15.3h0.9c0.2,0,0.4-0.1,0.6-0.2s0.2-0.3,0.2-0.5s-0.1-0.4-0.2-0.5s-0.3-0.2-0.6-0.2h-0.9V15.3z"/>
		<path class="st3" d="M107.3,14.8c0,0.4-0.2,0.8-0.5,1.1s-0.7,0.4-1.2,0.4h-2.2v-5h1.8c0.5,0,0.9,0.1,1.1,0.4
			c0.3,0.3,0.4,0.6,0.4,1s-0.1,0.7-0.4,0.9C107,13.7,107.3,14.1,107.3,14.8z M105.1,12.1h-0.7v1.2h0.7c0.2,0,0.4-0.1,0.5-0.2
			c0.1-0.1,0.2-0.2,0.2-0.4s-0.1-0.3-0.2-0.4S105.3,12.1,105.1,12.1z M106.2,14.7c0-0.2-0.1-0.3-0.2-0.5s-0.3-0.2-0.5-0.2h-1.2v1.3
			h1.2c0.2,0,0.4-0.1,0.5-0.2C106.2,15.1,106.2,14.9,106.2,14.7z"/>
		<path class="st3" d="M54.3,25.5H55v2h-1v-1.1h-3.1v1.1h-1v-2h0.4c0.4-0.3,0.6-1.4,0.6-3.3v-0.8h3.5v4.1H54.3z M51.3,25.5h2v-3.2
			h-1.5C51.8,23.9,51.6,25,51.3,25.5z"/>
		<path class="st3" d="M55.4,23.9c0-0.7,0.2-1.3,0.8-1.9s1.2-0.8,1.9-0.8s1.4,0.2,1.9,0.8c0.5,0.5,0.8,1.1,0.8,1.9
			c0,0.7-0.3,1.3-0.8,1.9c-0.5,0.5-1.2,0.8-1.9,0.8s-1.4-0.2-1.9-0.8S55.4,24.6,55.4,23.9z M59.7,23.9c0-0.5-0.2-0.9-0.5-1.2
			c-0.3-0.3-0.7-0.5-1.2-0.5s-0.9,0.2-1.2,0.5s-0.5,0.7-0.5,1.2s0.2,0.9,0.5,1.2c0.3,0.3,0.7,0.5,1.2,0.5s0.8-0.2,1.2-0.5
			C59.5,24.8,59.7,24.4,59.7,23.9z"/>
		<path class="st3" d="M61.6,26.4v-5h4.2v5h-1v-4.1h-2.2v4.1H61.6z"/>
		<path class="st3" d="M66.7,23.9c0-0.7,0.2-1.3,0.8-1.9s1.2-0.8,1.9-0.8c0.7,0,1.4,0.2,1.9,0.8c0.5,0.5,0.8,1.1,0.8,1.9
			c0,0.7-0.3,1.3-0.8,1.9c-0.5,0.5-1.2,0.8-1.9,0.8c-0.7,0-1.4-0.2-1.9-0.8S66.7,24.6,66.7,23.9z M71,23.9c0-0.5-0.2-0.9-0.5-1.2
			c-0.3-0.3-0.7-0.5-1.2-0.5s-0.9,0.2-1.2,0.5c-0.3,0.3-0.5,0.7-0.5,1.2s0.2,0.9,0.5,1.2c0.3,0.3,0.7,0.5,1.2,0.5s0.8-0.2,1.2-0.5
			C70.8,24.8,71,24.4,71,23.9z"/>
		<path class="st3" d="M73.4,21.4h3.5v5h-1v-4.1h-1.4c0,1.1-0.1,1.9-0.2,2.5s-0.3,1-0.5,1.3c-0.2,0.2-0.5,0.4-0.9,0.4
			c-0.2,0-0.3,0-0.4-0.1v-0.9c0,0,0.1,0,0.2,0c0.3,0,0.5-0.3,0.7-0.8c0.1-0.5,0.2-1.3,0.2-2.5L73.4,21.4z"/>
		<path class="st3" d="M78,26.4v-5h1v1.9h2.2v-1.9h1v5h-1v-2.2H79v2.2H78z"/>
		<path class="st3" d="M83.4,26.4v-5h3.4v0.9h-2.4v1h1.7v0.9h-1.7v1.3h2.4v0.9C86.8,26.4,83.4,26.4,83.4,26.4z"/>
		<path class="st3" d="M87.8,26.4v-5h1v1.9H91v-1.9h1v5h-1v-2.2h-2.2v2.2H87.8z"/>
		<path class="st3" d="M93.2,26.4v-5h1v1.9h2.2v-1.9h1v5h-1v-2.2h-2.2v2.2H93.2z"/>
		<path class="st3" d="M98.4,23.9c0-0.7,0.2-1.3,0.8-1.9s1.2-0.8,1.9-0.8c0.7,0,1.4,0.2,1.9,0.8c0.5,0.5,0.8,1.1,0.8,1.9
			c0,0.7-0.3,1.3-0.8,1.9c-0.5,0.5-1.2,0.8-1.9,0.8c-0.7,0-1.4-0.2-1.9-0.8S98.4,24.6,98.4,23.9z M102.7,23.9c0-0.5-0.2-0.9-0.5-1.2
			c-0.3-0.3-0.7-0.5-1.2-0.5s-0.9,0.2-1.2,0.5c-0.3,0.3-0.5,0.7-0.5,1.2s0.2,0.9,0.5,1.2c0.3,0.3,0.7,0.5,1.2,0.5s0.8-0.2,1.2-0.5
			C102.5,24.8,102.7,24.4,102.7,23.9z"/>
		<path class="st3" d="M108.6,21.3h0.3v5.1h-1v-3.1l-3,3.2h-0.3v-5.1h1v3.1L108.6,21.3z M105.6,19.6v-0.1h0.8v0.1
			c0,0.2,0,0.3,0.1,0.4s0.2,0.2,0.4,0.2s0.3-0.1,0.4-0.2s0.1-0.2,0.1-0.4v-0.1h0.8v0.1c0,0.4-0.1,0.7-0.4,1
			c-0.2,0.2-0.6,0.4-0.9,0.4c-0.4,0-0.7-0.1-1-0.4C105.7,20.3,105.6,20,105.6,19.6z"/>
		<path class="st3" d="M50.3,36.6v-5h1.9c0.5,0,1,0.2,1.3,0.5s0.5,0.7,0.5,1.2s-0.2,0.9-0.5,1.2S52.7,35,52.2,35h-0.9v1.8h-1V36.6z
			 M51.3,34h0.9c0.2,0,0.4-0.1,0.6-0.2s0.2-0.3,0.2-0.5s-0.1-0.4-0.2-0.5c-0.1-0.1-0.3-0.2-0.6-0.2h-0.9V34z"/>
		<path class="st3" d="M54.8,36.6v-5h3.4v0.9h-2.4v1h1.7v0.9h-1.7v1.3h2.4v0.9C58.2,36.6,54.8,36.6,54.8,36.6z"/>
		<path class="st3" d="M62.4,36.6L62.1,36H60l-0.3,0.7h-1.1l2.2-5.1h0.3l2.2,5.1h-0.9V36.6z M61.8,35.1l-0.7-1.7l-0.7,1.7H61.8z"/>
		<path class="st3" d="M64.7,31.6h3.5v5h-1v-4.1h-1.4c0,1.1-0.1,1.9-0.2,2.5s-0.3,1-0.5,1.3c-0.2,0.2-0.5,0.4-0.9,0.4
			c-0.2,0-0.3,0-0.4-0.1v-0.9c0,0,0.1,0,0.2,0c0.3,0,0.5-0.3,0.7-0.8c0.1-0.5,0.2-1.3,0.2-2.5L64.7,31.6z"/>
		<path class="st3" d="M69.3,36.6v-5h1v1.7h0.9c0.5,0,1,0.2,1.3,0.5S73,34.5,73,35s-0.2,0.9-0.5,1.2s-0.8,0.5-1.3,0.5h-1.9V36.6z
			 M70.4,35.7h0.9c0.2,0,0.4-0.1,0.6-0.2s0.2-0.3,0.2-0.5s-0.1-0.4-0.2-0.5s-0.3-0.2-0.6-0.2h-0.9V35.7z"/>
		<path class="st3" d="M74,36.6v-5h1v1.9h2.2v-1.9h1v5h-1v-2.2H75v2.2H74z"/>
		<path class="st3" d="M79.1,34.1c0-0.7,0.2-1.3,0.8-1.9s1.2-0.8,1.9-0.8c0.7,0,1.4,0.2,1.9,0.8c0.5,0.5,0.8,1.1,0.8,1.9
			c0,0.7-0.3,1.3-0.8,1.9c-0.5,0.5-1.2,0.8-1.9,0.8c-0.7,0-1.4-0.2-1.9-0.8S79.1,34.8,79.1,34.1z M83.4,34.1c0-0.5-0.2-0.9-0.5-1.2
			s-0.7-0.5-1.2-0.5s-0.9,0.2-1.2,0.5c-0.3,0.3-0.5,0.7-0.5,1.2s0.2,0.9,0.5,1.2s0.7,0.5,1.2,0.5s0.8-0.2,1.2-0.5
			C83.3,35,83.4,34.6,83.4,34.1z"/>
		<path class="st3" d="M85.1,34.1c0-0.7,0.3-1.3,0.8-1.9c0.5-0.5,1.2-0.8,1.9-0.8c0.5,0,0.9,0.1,1.3,0.3s0.7,0.5,0.9,0.9l-0.8,0.5
			c-0.4-0.6-0.8-0.8-1.4-0.8c-0.5,0-0.9,0.2-1.2,0.5c-0.3,0.3-0.5,0.7-0.5,1.2s0.2,0.9,0.5,1.2s0.7,0.5,1.2,0.5
			c0.6,0,1.1-0.3,1.4-0.8l0.8,0.5c-0.2,0.4-0.5,0.7-0.9,0.9s-0.8,0.3-1.3,0.3c-0.7,0-1.4-0.2-1.9-0.8C85.3,35.5,85.1,34.8,85.1,34.1
			z"/>
		<path class="st3" d="M92,36.6v-4.1h-1.6v-0.9h4.3v0.9H93v4.1H92z"/>
		<path class="st3" d="M99.3,31.5h0.3v5.1h-1v-3.1l-3,3.2h-0.3v-5.1h1v3.1L99.3,31.5z"/>
	</g>
</g>
</svg>
