<?xml version="1.0" encoding="utf-8"?>
<!-- Generator: Adobe Illustrator 20.0.0, SVG Export Plug-In . SVG Version: 6.00 Build 0)  -->
<svg version="1.1" baseProfile="tiny" id="Слой_1"
	 xmlns="http://www.w3.org/2000/svg" xmlns:xlink="http://www.w3.org/1999/xlink" x="0px" y="0px" viewBox="0 0 156.4 51.2"
	 xml:space="preserve">
<g id="Слой_2">
	<g id="Слой_1-2">
		<g>
			<path fill="#000DFF" d="M91.9,15.7h3.9c-1.4,1.2-3.2,4.2-5.3,8.9s-3.2,8.2-3.1,10.4c0,1.1,0.4,1.7,1.2,1.7
				c2.5,0,5.7-3.7,9.6-11.1c0.2-0.3,0.3-0.5,0.5-0.5s0.4,0.4,0.4,1.2c0,0.8-0.2,1.6-0.6,2.3c-5.4,9-9.9,13.5-13.5,13.5
				c-2.3,0-3.5-1.8-3.5-5.4c0-2.7,0.5-5.4,1.4-7.9c-4.9,8.7-9.5,13.1-13.7,13.1c-2.9,0-4.4-2-4.4-6c0-3.2,0.7-6.3,2-9.2
				c1.3-3.1,3.2-5.8,5.7-8c2.2-2.1,5.1-3.3,8.1-3.3c1.4,0,2.7,0.3,3.9,0.9c1.2,0.6,2.1,1.7,2.4,3c0.5-1,1.3-1.9,2.2-2.6
				C89.9,16.1,90.9,15.7,91.9,15.7z M86.5,20c-0.4-1.4-1.7-2.3-3.1-2.1c-2.9,0-5.6,2-8.3,5.9c-2.7,3.9-4,7.5-4,10.7
				c0,1.3,0.5,2,1.6,2s2.4-0.7,4-2.1c1.6-1.5,3-3.2,4.1-5C83.5,25.1,85.4,22,86.5,20z"/>
			<path fill="#000DFF" d="M105.8,15.7h3.9c-0.7,0.5-1.6,1.9-2.8,4.2l-2.6,5.2c-0.5,1.2-1.2,2.8-1.9,4.7c-0.6,1.6-1,3.2-1.1,4.9
				c0,1.3,0.4,1.9,1.2,1.9c0.9-0.1,1.8-0.5,2.5-1.1c0.9-0.7,1.8-1.5,2.5-2.4c0.8-1,1.5-2.1,2.2-3.2l2.1-3.4c0.3-0.5,0.6-1,1-1.4
				c0.3,0,0.4,0.4,0.4,1.2c0,0.8-0.2,1.6-0.6,2.3c-1.6,2.7-3.1,4.9-4.4,6.7c-1.3,1.8-2.8,3.3-4.5,4.7c-1.3,1.2-2.9,1.9-4.6,2
				c-2.4,0-3.6-1.7-3.6-5.1c0-5.3,1.8-11.1,5.4-17.4C102.3,17,103.9,15.7,105.8,15.7z M114.6,7.1h-0.3c-0.9,0-1.8,0.4-2.5,1.1
				c-0.7,0.6-1.3,1.4-1.7,2.3c-1-0.3-1.7-1.2-1.7-2.3c0.1-1.3,0.7-2.5,1.6-3.4c0.7-1,1.8-1.6,3-1.7c0.7-0.1,1.5,0.2,2.1,0.6
				c0.5,0.4,0.7,1.1,0.7,1.7C115.7,6.1,115.3,6.8,114.6,7.1z"/>
			<path fill="#000DFF" d="M155.7,28.6c-1.6,2.7-3.1,4.9-4.4,6.7c-1.3,1.8-2.8,3.3-4.5,4.7c-1.3,1.2-2.9,1.9-4.6,2
				c-2.5,0-3.8-1.5-3.8-4.4c0-2.9,1.4-7.8,4.1-14.6c0.5-1,0.8-2.2,0.9-3.3c0-0.9-0.4-1.3-1.2-1.3c-0.9,0.1-1.7,0.4-2.5,0.8
				c-1.2,0.6-2.4,1.5-3.3,2.5c-0.9,1-1.8,2-2.6,3.1c-0.8,1.4-1.5,2.8-2.1,4.3c-0.8,1.9-1.3,3.3-1.6,4c-1.3,3.9-2.1,6.7-2.5,8.4h-6.4
				c2.3-6.3,3.8-10.5,4.6-12.6l1.5-4l0.6-1.8c0.4-1.1,0.6-2.2,0.7-3.4c0-0.9-0.4-1.4-1.2-1.4c-1,0.1-1.9,0.4-2.8,0.9
				c-1.3,0.7-2.5,1.6-3.5,2.7c-1.1,1.2-2.1,2.6-2.8,4.1c-0.7,1.5-1.3,2.9-1.8,4c-0.5,1.1-0.9,2.5-1.4,4.1c-0.5,1.6-0.9,2.9-1.3,4
				c-0.4,1.1-0.8,2.2-1.1,3.5h-6.3c0.4-1.7,1-3.3,1.6-4.9l4.2-10.8c1.7-4.3,2.6-7.5,2.6-9.5c0-0.3,0-0.5-0.1-0.8h2.7
				c1-0.1,2,0,2.9,0.4c0.4,0.2,0.6,0.7,0.6,1.1c-0.2,1.1-0.4,2.2-0.8,3.3c3.8-3.5,7.6-5.2,11.4-5.2c2.3,0,3.4,1,3.4,2.9
				c0,1.1-0.3,2.1-0.7,3.1c3.9-3.9,8-5.9,12.1-5.9c2.3,0,3.4,1,3.4,2.9c0,0.9-0.2,1.7-0.5,2.5l-1.2,3l-1,3.1l-1,3
				c-0.7,1.7-1.1,3.5-1.2,5.3c0,1.1,0.4,1.7,1.1,1.7c1-0.1,2-0.6,2.7-1.4c0.9-0.8,1.7-1.6,2.4-2.5c0.5-0.7,1.2-1.7,2-3l2-3.3
				c0.3-0.5,0.6-1,1-1.4c0.3,0,0.4,0.4,0.4,1.2C156.4,27.2,156.1,27.9,155.7,28.6z"/>
		</g>
		<g>
			<polygon fill="none" stroke="#000DFF" stroke-width="3" stroke-miterlimit="10" points="27,1.9 52.6,19.9 42.8,49.7 11.9,49.7 
				1.8,20.5 			"/>
			<line fill="none" stroke="#000DFF" stroke-miterlimit="10" x1="27.2" y1="28.1" x2="27" y2="1.9"/>
			<line fill="none" stroke="#000DFF" stroke-miterlimit="10" x1="52.6" y1="19.9" x2="27.2" y2="28.1"/>
			<line fill="none" stroke="#000DFF" stroke-miterlimit="10" x1="42.8" y1="49.7" x2="27.2" y2="28.1"/>
			<line fill="none" stroke="#000DFF" stroke-miterlimit="10" x1="11.9" y1="49.7" x2="27.2" y2="28.1"/>
			<line fill="none" stroke="#000DFF" stroke-miterlimit="10" x1="1.8" y1="20.5" x2="27.2" y2="28.1"/>
			<circle fill="#000DFF" cx="10.6" cy="23.1" r="1.6"/>
			<circle fill="#000DFF" cx="14.9" cy="45.5" r="1.6"/>
			<circle fill="#000DFF" cx="35.8" cy="40" r="1.6"/>
			<circle fill="#000DFF" cx="47" cy="21.7" r="1.6"/>
			<circle fill="#000DFF" cx="27.2" cy="8.6" r="1.6"/>
			<g>
				<line fill="none" stroke="#000DFF" stroke-linecap="round" stroke-miterlimit="10" x1="47" y1="21.7" x2="46.7" y2="22.1"/>
				
					<line fill="none" stroke="#000DFF" stroke-linecap="round" stroke-miterlimit="10" stroke-dasharray="1.2046,2.4093,1.2046,2.4093" x1="45.5" y1="24.2" x2="42.3" y2="29.3"/>
				
					<line fill="none" stroke="#000DFF" stroke-linecap="round" stroke-miterlimit="10" stroke-dasharray="1.2046,2.4093,1.2046,2.4093,1.2046,2.4093" x1="41.7" y1="30.3" x2="36.7" y2="38.6"/>
				<line fill="none" stroke="#000DFF" stroke-linecap="round" stroke-miterlimit="10" x1="36" y1="39.6" x2="35.8" y2="40"/>
			</g>
			<g>
				<line fill="none" stroke="#000DFF" stroke-linecap="round" stroke-miterlimit="10" x1="27.2" y1="8.6" x2="27.6" y2="8.8"/>
				
					<line fill="none" stroke="#000DFF" stroke-linecap="round" stroke-miterlimit="10" stroke-dasharray="0.8754,1.7508,0.8754,1.7508" x1="29.1" y1="9.8" x2="32.7" y2="12.2"/>
				
					<line fill="none" stroke="#000DFF" stroke-linecap="round" stroke-miterlimit="10" stroke-dasharray="0.8754,1.7508,0.8754,1.7508,0.8754,1.7508" x1="33.4" y1="12.7" x2="45.8" y2="20.9"/>
				<line fill="none" stroke="#000DFF" stroke-linecap="round" stroke-miterlimit="10" x1="46.6" y1="21.4" x2="47" y2="21.7"/>
			</g>
			<g>
				<line fill="none" stroke="#000DFF" stroke-linecap="round" stroke-miterlimit="10" x1="27.2" y1="8.6" x2="26.8" y2="8.9"/>
				
					<line fill="none" stroke="#000DFF" stroke-linecap="round" stroke-miterlimit="10" stroke-dasharray="0.8122,1.6243,0.8122,1.6243" x1="25.6" y1="10" x2="22.5" y2="12.6"/>
				
					<line fill="none" stroke="#000DFF" stroke-linecap="round" stroke-miterlimit="10" stroke-dasharray="0.8122,1.6243,0.8122,1.6243,0.8122,1.6243" x1="21.9" y1="13.2" x2="11.5" y2="22.3"/>
				<line fill="none" stroke="#000DFF" stroke-linecap="round" stroke-miterlimit="10" x1="10.9" y1="22.8" x2="10.6" y2="23.1"/>
			</g>
			<g>
				<line fill="none" stroke="#000DFF" stroke-linecap="round" stroke-miterlimit="10" x1="10.6" y1="23.1" x2="10.7" y2="23.6"/>
				
					<line fill="none" stroke="#000DFF" stroke-linecap="round" stroke-miterlimit="10" stroke-dasharray="0.8387,1.6773,0.8387,1.6773" x1="11" y1="25.3" x2="11.8" y2="29.4"/>
				
					<line fill="none" stroke="#000DFF" stroke-linecap="round" stroke-miterlimit="10" stroke-dasharray="0.8387,1.6773,0.8387,1.6773,0.8387,1.6773" x1="11.9" y1="30.2" x2="14.6" y2="44.2"/>
				<line fill="none" stroke="#000DFF" stroke-linecap="round" stroke-miterlimit="10" x1="14.8" y1="45" x2="14.9" y2="45.5"/>
			</g>
			<g>
				<line fill="none" stroke="#000DFF" stroke-linecap="round" stroke-miterlimit="10" x1="35.8" y1="40" x2="35.3" y2="40.1"/>
				
					<line fill="none" stroke="#000DFF" stroke-linecap="round" stroke-miterlimit="10" stroke-dasharray="1.2122,2.4244,1.2122,2.4244" x1="32.9" y1="40.8" x2="27.1" y2="42.3"/>
				
					<line fill="none" stroke="#000DFF" stroke-linecap="round" stroke-miterlimit="10" stroke-dasharray="1.2122,2.4244,1.2122,2.4244,1.2122,2.4244" x1="25.9" y1="42.6" x2="16.5" y2="45.1"/>
				<line fill="none" stroke="#000DFF" stroke-linecap="round" stroke-miterlimit="10" x1="15.4" y1="45.4" x2="14.9" y2="45.5"/>
			</g>
		</g>
	</g>
</g>
</svg>
